<?xml version="1.0" encoding="UTF-8"?>
<svg version="1.1" xmlns="http://www.w3.org/2000/svg" width="1254" height="1254">
<path d="M0 0 C413.82 0 827.64 0 1254 0 C1254 413.82 1254 827.64 1254 1254 C840.18 1254 426.36 1254 0 1254 C0 840.18 0 426.36 0 0 Z " fill="#08080A" transform="translate(0,0)"/>
<path d="M0 0 C0.66 0 1.32 0 2 0 C2.20962718 0.52710571 2.41925436 1.05421143 2.63523388 1.59729004 C7.80412577 14.59418469 12.97435138 27.59054815 18.14595318 40.58636475 C20.64715975 46.87178218 23.1479307 53.15737218 25.64770508 59.44335938 C28.5386298 66.71273592 31.43075138 73.98163513 34.32421875 81.25 C34.79385921 82.42973389 35.26349968 83.60946777 35.74737167 84.82495117 C41.85586629 100.16430928 47.99379176 115.49078846 54.25016785 130.77050781 C56.58756265 136.48546096 58.85685185 142.20954495 61 148 C62.08405907 150.65436568 63.19950612 153.29516077 64.3125 155.9375 C66.79419812 161.87420165 69.04514953 167.8489384 71.125 173.9375 C73.01293187 179.46278905 75.16592857 184.58274218 77.91796875 189.74609375 C79.06417028 192.13366879 79.79435776 194.44943839 80.5 197 C81.44706552 200.40943589 82.59966808 203.37079921 84.25 206.5 C86.7248976 211.23230419 88.69873229 216.08885638 90.625 221.0625 C91.0586084 222.17818359 91.0586084 222.17818359 91.50097656 223.31640625 C92.94723583 227.08896774 94.30267336 230.87325503 95.5546875 234.71484375 C96.66550713 238.09606139 97.95394984 241.28897275 99.5 244.5 C101.03944329 247.79880704 102.40865564 251.02754069 103.5 254.5 C104.56094329 257.86760088 105.87282392 260.99187697 107.375 264.1875 C109.3386711 268.39116718 110.97685632 272.6173696 112.5 277 C113.98773255 281.27723109 115.57189627 285.40277958 117.5 289.5 C119.96782514 294.74412842 121.84735104 300.12363423 123.75 305.59375 C125.20414248 309.55628826 126.9447736 313.3214534 128.7421875 317.13671875 C130.69235079 321.57606563 132.22984445 326.14957577 133.7890625 330.73828125 C134.98912773 333.97071502 136.43531744 336.93020402 138 340 C140.63373759 345.97659587 143.02887041 352.04400267 145.4296875 358.1171875 C146.07033394 359.73449516 146.07033394 359.73449516 146.72392273 361.38447571 C148.10860059 364.88092792 149.49183438 368.37794932 150.875 371.875 C151.82668487 374.27907517 152.77842664 376.68312781 153.73022461 379.0871582 C159.53183813 393.74424755 165.32377781 408.40514589 171.09130859 423.07568359 C173.70632431 429.72575986 176.33594409 436.3694122 179 443 C179.27158936 443.67603271 179.54317871 444.35206543 179.82299805 445.04858398 C180.07863525 445.68481689 180.33427246 446.3210498 180.59765625 446.9765625 C181.32275391 448.78253906 181.32275391 448.78253906 182.0625 450.625 C182.54847656 451.83414062 183.03445313 453.04328125 183.53515625 454.2890625 C184.50426798 456.74414556 185.44876521 459.2091017 186.3671875 461.68359375 C188.46873044 467.32032191 190.78138508 472.87169143 193.0625 478.4375 C194.04333146 480.84360218 195.0237914 483.24985583 196.00390625 485.65625 C197.47830688 489.27405875 198.95508405 492.89077708 200.44091797 496.50390625 C201.80117374 499.81220022 203.15138021 503.12444884 204.5 506.4375 C204.90871338 507.42355225 205.31742676 508.40960449 205.73852539 509.42553711 C208.12188442 515.30993744 209.87832431 521.12396808 211.33398438 527.30200195 C212.15548783 530.62987389 213.23564608 533.68980071 214.5 536.875 C214.9021875 537.90367187 215.304375 538.93234375 215.71875 539.9921875 C216.98633097 543.08286199 216.98633097 543.08286199 218.71875 546.2578125 C219.1415625 547.16273438 219.564375 548.06765625 220 549 C219.67 549.66 219.34 550.32 219 551 C219.66 551.33 220.32 551.66 221 552 C218.45427323 553.27286338 216.7552427 553.08245778 213.90771484 553.02172852 C212.31629166 552.99158409 212.31629166 552.99158409 210.69271851 552.96083069 C209.54373077 552.93379562 208.39474304 552.90676056 207.2109375 552.87890625 C206.03737701 552.85529526 204.86381653 552.83168427 203.6546936 552.80735779 C199.89467664 552.73059053 196.13485891 552.64662229 192.375 552.5625 C189.83073902 552.50929241 187.28646822 552.45655193 184.7421875 552.40429688 C178.49466755 552.27495773 172.24729637 552.13970111 166 552 C165.72736328 551.07767578 165.72736328 551.07767578 165.44921875 550.13671875 C165.19785156 549.32847656 164.94648437 548.52023437 164.6875 547.6875 C164.44386719 546.88699219 164.20023438 546.08648438 163.94921875 545.26171875 C162.9486799 542.87771877 161.88561925 541.72323505 160 540 C159.04296875 538.046875 159.04296875 538.046875 158.1875 535.75 C157.84976562 534.86699219 157.51203125 533.98398437 157.1640625 533.07421875 C156.58785156 531.55248047 156.58785156 531.55248047 156 530 C155.02667912 527.51830064 154.0490097 525.03892996 153.0625 522.5625 C152.6761438 521.59026489 152.6761438 521.59026489 152.28198242 520.59838867 C150.78747764 516.86798844 149.20430874 513.20128136 147.5 509.5625 C145.5491172 505.35990119 143.87395816 501.08858853 142.27734375 496.7421875 C139.29181529 488.70202809 136.14725054 480.73136214 132.95043945 472.77319336 C132.06458259 470.567685 131.18149404 468.36108396 130.29882812 466.15429688 C125.44863859 454.04350737 120.50017384 441.97411238 115.46875 429.9375 C112.13678293 421.95602333 108.9035264 413.93435819 105.65673828 405.91796875 C102.14899618 397.2596954 98.61368182 388.61478075 95 380 C92.01515867 372.88370147 89.08868188 365.74803824 86.23510742 358.578125 C84.25751396 353.6185472 82.21504612 348.68862897 80.1484375 343.765625 C79.069321 341.16693629 78.02936775 338.55621156 77 335.9375 C75.64825177 332.52568748 74.18034474 329.19868255 72.625 325.875 C69.62970112 319.36987237 67.19585441 312.67623259 64.72314453 305.96044922 C62.19690106 299.11178783 59.6539301 292.30355423 56.5625 285.6875 C54.58875536 281.44524647 52.89647073 277.1368478 51.2890625 272.74609375 C47.9974122 263.87139717 44.42545908 255.12276473 40.8125 246.375 C40.11535932 244.68156042 39.41842518 242.98803581 38.72167969 241.29443359 C34.58309533 231.24018831 30.42723053 221.19307211 26.27264404 211.14543152 C18.5851099 192.5532384 10.90589253 173.95762473 3.28063965 155.33978271 C2.39220037 153.17197634 1.50249069 151.00469014 0.6114502 148.83795166 C-0.62851277 145.82181127 -1.86368885 142.8037536 -3.09765625 139.78515625 C-3.64786186 138.45078773 -3.64786186 138.45078773 -4.20918274 137.08946228 C-6.10319255 132.44025344 -7.72839003 127.85773894 -9 123 C-9.66 123 -10.32 123 -11 123 C-11.556875 124.79824219 -11.556875 124.79824219 -12.125 126.6328125 C-14.32822601 133.22455729 -17.18677882 139.52652522 -20 145.875 C-20.61532038 147.2715831 -21.23030018 148.6683163 -21.8449707 150.06518555 C-23.5326003 153.89732923 -25.22548275 157.72713163 -26.91949463 161.55645752 C-28.3937743 164.89051315 -29.86535672 168.22575663 -31.33700562 171.56097412 C-35.32316877 180.59460347 -39.31507943 189.62568356 -43.30941772 198.65570068 C-46.13082816 205.03418398 -48.95080847 211.41329729 -51.76953125 217.79296875 C-52.16058044 218.67803604 -52.55162964 219.56310333 -52.95452881 220.47499084 C-54.52876252 224.0380817 -56.10292569 227.60120371 -57.67706299 231.16433716 C-62.13792486 241.26159737 -66.60037519 251.35814993 -71.06640625 261.453125 C-75.71700312 271.96607579 -80.3624216 282.48129956 -85 293 C-85.30286926 293.68672791 -85.60573853 294.37345581 -85.91778564 295.08099365 C-87.65919598 299.0306919 -89.39450465 302.98300846 -91.125 306.9375 C-91.52082275 307.83629883 -91.91664551 308.73509766 -92.32446289 309.66113281 C-92.67371826 310.46260742 -93.02297363 311.26408203 -93.3828125 312.08984375 C-93.67559082 312.75878662 -93.96836914 313.42772949 -94.27001953 314.11694336 C-95.16674434 316.31417562 -95.16674434 316.31417562 -96 320 C-47.82 320 0.36 320 50 320 C57 337 57 337 57 339 C-23.19 339.495 -23.19 339.495 -105 340 C-106.65 343.96 -108.3 347.92 -110 352 C-111.32252382 355.00573596 -112.65277407 358.00555856 -114 361 C-114.6673951 362.49967604 -115.33405468 363.99967961 -116 365.5 C-116.31275879 366.20358643 -116.62551758 366.90717285 -116.94775391 367.63208008 C-117.60237906 369.10521451 -118.25652022 370.57856424 -118.90991211 372.05224609 C-121.82309775 378.61895964 -124.77497223 385.16796858 -127.73242188 391.71484375 C-128.11076172 392.55402344 -128.48910156 393.39320313 -128.87890625 394.2578125 C-129.2147876 395.0017627 -129.55066895 395.74571289 -129.89672852 396.51220703 C-131.01682108 399.03793025 -132.10171747 401.57770545 -133.18742371 404.11834717 C-134.60818742 407.4083571 -136.08341618 410.67374857 -137.5546875 413.94140625 C-138.25191104 415.49367953 -138.94900866 417.04600937 -139.64599609 418.59838867 C-140.00908875 419.4068222 -140.3721814 420.21525574 -140.74627686 421.04818726 C-146.89444374 434.74367532 -152.9713288 448.46431674 -158.91040039 462.25195312 C-163.64024761 473.2202718 -168.47391169 484.14179304 -173.3125 495.0625 C-181.99352369 514.65832485 -190.51966055 534.31627632 -199 554 C-214.51 554 -230.02 554 -246 554 C-244.10302741 548.30908222 -242.29427361 543.13424699 -239.875 537.72265625 C-239.57614899 537.05139709 -239.27729797 536.38013794 -238.96939087 535.6885376 C-237.98376362 533.47796911 -236.99195878 531.27023369 -236 529.0625 C-235.29057424 527.474978 -234.58143408 525.88732834 -233.87255859 524.29956055 C-228.10507145 511.39789565 -222.26207492 498.53034393 -216.42190552 485.66146851 C-210.11450466 471.75728748 -203.93211773 457.80221399 -197.81741333 443.81234741 C-192.30974376 431.21436186 -186.72226772 418.65537217 -181.0625 406.125 C-174.80854313 392.27883864 -168.62573072 378.4033685 -162.5 364.5 C-156.24587705 350.3066938 -149.93841105 336.13903117 -143.5625 322 C-143.0002623 320.75301331 -143.0002623 320.75301331 -142.42666626 319.48083496 C-142.0568161 318.6605481 -141.68696594 317.84026123 -141.3059082 316.99511719 C-140.57631741 315.37696089 -139.84674355 313.75879696 -139.1171875 312.140625 C-138.76522812 311.35999695 -138.41326874 310.5793689 -138.05064392 309.77508545 C-134.74543094 302.44116249 -131.45916923 295.0989436 -128.1875 287.75 C-127.72609619 286.71617187 -127.26469238 285.68234375 -126.78930664 284.6171875 C-124.60705342 279.70640539 -122.48192294 274.77913644 -120.4296875 269.8125 C-118.39233089 264.89278544 -116.22995237 260.05542119 -113.9375 255.25 C-113.61201172 254.56035156 -113.28652344 253.87070312 -112.95117188 253.16015625 C-111.31697414 249.7105428 -109.6426894 246.28802328 -107.91015625 242.88671875 C-106.21660733 239.51613125 -104.80854695 236.10353415 -103.5 232.5625 C-100.15585604 223.72585292 -96.24254765 215.39867623 -91.87890625 207.015625 C-90.25642555 203.71151986 -88.9473419 200.32462023 -87.64453125 196.8828125 C-85.04499597 190.01630114 -82.13148979 183.32162584 -79.125 176.625 C-78.63386719 175.5215625 -78.14273438 174.418125 -77.63671875 173.28125 C-75.02964565 167.4441149 -72.37319751 161.63232837 -69.66015625 155.84375 C-65.46425111 146.89040757 -61.38533265 137.88485747 -57.3125 128.875 C-56.9080365 127.98092438 -56.503573 127.08684875 -56.08685303 126.16567993 C-48.67998603 109.78734568 -41.36237604 93.37000184 -34.07495117 76.93823242 C-33.24790093 75.07339749 -32.42083416 73.20856989 -31.59375 71.34375 C-31.19501175 70.44469437 -30.7962735 69.54563873 -30.38545227 68.61933899 C-26.98862686 60.9648425 -23.56108486 53.32443257 -20.125 45.6875 C-13.2996059 30.50964451 -6.64466391 15.25761591 0 0 Z " fill="#D2CEC7" transform="translate(629,280)"/>
<path d="M0 0 C6.24225744 -0.83030027 9.95299821 1.96845218 15 5.1875 C16.78450672 6.29271611 18.56968785 7.39684387 20.35546875 8.5 C21.28020996 9.07621094 22.20495117 9.65242187 23.15771484 10.24609375 C27.83371775 13.1315434 32.57432239 15.90577896 37.3125 18.6875 C44.48490282 22.91671243 51.64424057 27.16580925 58.77734375 31.4609375 C62.3276456 33.59850194 65.88427731 35.72538 69.44140625 37.8515625 C71.17435571 38.88829748 72.90719652 39.92521376 74.63998413 40.96221924 C76.35488233 41.98796684 78.07062483 43.01230247 79.78637695 44.03662109 C81.35778442 44.97755615 81.35778442 44.97755615 82.9609375 45.9375 C83.90759277 46.50339844 84.85424805 47.06929687 85.82958984 47.65234375 C88 49 88 49 89 50 C89.41064453 52.328125 89.41064453 52.328125 89 55 C86.68701172 56.921875 86.68701172 56.921875 83.4296875 58.75 C82.84606445 59.08475845 82.26244141 59.41951691 81.66113281 59.76441956 C79.74175638 60.86039551 77.8088025 61.92971918 75.875 63 C74.53549961 63.75966327 73.19712764 64.52131954 71.85986328 65.28491211 C69.16751459 66.8201665 66.47059541 68.34683393 63.76953125 69.86669922 C58.76093783 72.6916604 53.81567878 75.62077523 48.875 78.5625 C47.13305574 79.59416082 45.39086362 80.62540323 43.6484375 81.65625 C42.30990723 82.44902344 42.30990723 82.44902344 40.94433594 83.2578125 C38.19951703 84.88194415 35.4531974 86.50349897 32.70632935 88.12416077 C30.24145628 89.57880372 27.77743115 91.03487911 25.3135376 92.49118042 C24.11966166 93.19644436 22.9254562 93.90115081 21.730896 94.60525513 C20.05924912 95.59072704 18.38897692 96.57852964 16.71875 97.56640625 C15.27918945 98.41634155 15.27918945 98.41634155 13.81054688 99.28344727 C11.77001366 100.52971108 9.77739468 101.85550475 7.81835938 103.22631836 C5 105 5 105 2.1875 104.8125 C0 104 0 104 -1 103 C-1.10068604 99.87504265 -1.13614152 96.77214333 -1.12939453 93.64672852 C-1.13114685 92.66468445 -1.13289917 91.68264038 -1.13470459 90.6708374 C-1.13912547 87.40684266 -1.13618406 84.1429016 -1.1328125 80.87890625 C-1.13348553 78.62068166 -1.13445554 76.36245713 -1.13571167 74.10423279 C-1.13718901 69.36367099 -1.13503314 64.62312798 -1.13037109 59.88256836 C-1.12467704 53.79461194 -1.12795054 47.70669964 -1.13394356 41.61874485 C-1.13755098 36.95289272 -1.13640969 32.2870511 -1.13381577 27.62119865 C-1.13314683 25.37602674 -1.13397376 23.13085388 -1.13629532 20.88568306 C-1.13882443 17.75131819 -1.13497739 14.61702549 -1.12939453 11.48266602 C-1.13141876 10.54700302 -1.13344299 9.61134003 -1.13552856 8.64732361 C-1.13270874 7.79618988 -1.12988892 6.94505615 -1.12698364 6.06813049 C-1.12660662 5.32646417 -1.12622959 4.58479784 -1.12584114 3.82065678 C-1 2 -1 2 0 0 Z " fill="#EEEBE5" transform="translate(632,644)"/>
<path d="M0 0 C59.4 0 118.8 0 180 0 C180 6.93 180 13.86 180 21 C156.67857097 21.02311642 133.35714469 21.0409779 110.03570652 21.05181217 C99.2079638 21.05697568 88.38022831 21.06401942 77.55249023 21.07543945 C68.11865593 21.08538462 58.68482687 21.09185303 49.25098747 21.09408849 C44.25258514 21.09539589 39.25419779 21.09848353 34.25580025 21.10573006 C29.5568499 21.11248764 24.85792081 21.1146175 20.15896606 21.11310768 C18.42911094 21.11338413 16.69925516 21.1153908 14.96940422 21.11920547 C12.61817177 21.12413864 10.26702085 21.1229997 7.91578674 21.12025452 C6.59670098 21.12117631 5.27761522 21.1220981 3.91855717 21.12304783 C1 21 1 21 0 20 C0 13.4 0 6.8 0 0 Z " fill="#A79179" transform="translate(907,659)"/>
<path d="M0 0 C1.32 0 2.64 0 4 0 C4 21.45 4 42.9 4 65 C23.14 65 42.28 65 62 65 C62 71.6 62 78.2 62 85 C42.86 85 23.72 85 4 85 C4 131.2 4 177.4 4 225 C2.68 225 1.36 225 0 225 C0 178.8 0 132.6 0 85 C-26.4 85 -52.8 85 -80 85 C-80 78.4 -80 71.8 -80 65 C-53.6 65 -27.2 65 0 65 C0 43.55 0 22.1 0 0 Z " fill="#9F9D99" transform="translate(895,546)"/>
<path d="M0 0 C4.29 0 8.58 0 13 0 C18.07525938 9.80483547 22.39169345 19.81132086 26.625 30 C28.0319953 33.37056978 29.44171156 36.73999886 30.8515625 40.109375 C31.20083801 40.94515076 31.55011353 41.78092651 31.90997314 42.64202881 C34.14708479 47.98798433 36.41363952 53.32026711 38.7109375 58.640625 C38.99450104 59.29784546 39.27806458 59.95506592 39.57022095 60.63220215 C40.8903929 63.6892593 42.21529444 66.74412285 43.54541016 69.796875 C44.0047998 70.8590625 44.46418945 71.92125 44.9375 73.015625 C45.33839844 73.93633789 45.73929687 74.85705078 46.15234375 75.80566406 C47 78 47 78 47 80 C42.05 80 37.1 80 32 80 C29.13813621 73.8997114 26.86310497 68.5208674 25 62 C12.79 62.33 0.58 62.66 -12 63 C-14.31 68.61 -16.62 74.22 -19 80 C-23.95 80 -28.9 80 -34 80 C-33.18430899 75.10585396 -32.38913584 72.21063784 -30.3671875 67.86328125 C-30.09841797 67.278349 -29.82964844 66.69341675 -29.55273438 66.09075928 C-28.97051567 64.82446672 -28.38526715 63.55956369 -27.79730225 62.29592896 C-26.20251319 58.866304 -24.63202429 55.42561996 -23.0625 51.984375 C-22.73281219 51.26222305 -22.40312439 50.54007111 -22.06344604 49.79603577 C-17.52025856 39.80185846 -13.25564669 29.68650822 -8.97607422 19.57739258 C-6.16572328 12.95291337 -3.34311967 6.37853928 0 0 Z " fill="#ECE9E3" transform="translate(379,883)"/>
<path d="M0 0 C1.93166016 0.01740234 1.93166016 0.01740234 3.90234375 0.03515625 C5.19269531 0.04417969 6.48304688 0.05320312 7.8125 0.0625 C8.81152344 0.07410156 9.81054688 0.08570313 10.83984375 0.09765625 C14.2601489 7.72756774 17.55567305 15.40831792 20.83984375 23.09765625 C22.54617215 27.09017952 24.26458939 31.076923 25.99609375 35.05859375 C26.77741089 36.86325219 27.55865955 38.66794027 28.33984375 40.47265625 C28.73042969 41.36726562 29.12101563 42.261875 29.5234375 43.18359375 C31.65388267 48.11876639 33.52948045 53.04267637 35.17382812 58.15917969 C36.00798513 60.58704137 37.10674363 62.78632943 38.33984375 65.03515625 C40.88238584 69.92820553 42.39684921 74.78136059 43.83984375 80.09765625 C38.55984375 80.09765625 33.27984375 80.09765625 27.83984375 80.09765625 C24.86984375 71.68265625 24.86984375 71.68265625 21.83984375 63.09765625 C3.52484375 62.60265625 3.52484375 62.60265625 -15.16015625 62.09765625 C-16.15015625 65.06765625 -17.14015625 68.03765625 -18.16015625 71.09765625 C-19.40999207 74.14491482 -20.78225745 77.1042899 -22.16015625 80.09765625 C-27.11015625 80.09765625 -32.06015625 80.09765625 -37.16015625 80.09765625 C-34.90209451 72.9225765 -32.10709253 66.10575342 -29.08203125 59.22265625 C-28.59236877 58.09931885 -28.1027063 56.97598145 -27.59820557 55.81860352 C-26.03916081 52.24335282 -24.47500082 48.67037177 -22.91015625 45.09765625 C-20.86097659 40.41115992 -18.81433102 35.72356516 -16.76953125 31.03515625 C-16.27916382 29.91206055 -15.78879639 28.78896484 -15.28356934 27.63183594 C-12.13973596 20.41094763 -9.07161471 13.16445313 -6.13861084 5.85522461 C-3.82411891 0.11817426 -3.82411891 0.11817426 0 0 Z " fill="#ECE9E3" transform="translate(689.16015625,882.90234375)"/>
<path d="M0 0 C1.34111343 0.00539291 1.34111343 0.00539291 2.70932007 0.01089478 C3.64580887 0.01074875 4.58229767 0.01060272 5.54716492 0.01045227 C8.65845007 0.01115179 11.76967617 0.01894602 14.88095093 0.02676392 C17.0318651 0.02862796 19.18277971 0.03005192 21.33369446 0.03105164 C27.00711225 0.03487792 32.68050463 0.04470914 38.35391235 0.05575562 C44.13831234 0.06596736 49.92271641 0.07054875 55.7071228 0.07559204 C67.06585975 0.08633132 78.42457113 0.103929 89.78329468 0.12442017 C89.78329468 7.05442017 89.78329468 13.98442017 89.78329468 21.12442017 C57.77329468 21.12442017 25.76329468 21.12442017 -7.21670532 21.12442017 C-7.21670532 0.01226071 -7.21670532 0.01226071 0 0 Z " fill="#6B6965" transform="translate(914.2167053222656,703.8755798339844)"/>
<path d="M0 0 C5.65889045 -1.00442023 11.45371567 -1.94255479 17 0 C21.33782726 3.76448872 23.46799785 9.45389552 25.81884766 14.57373047 C27.77719054 18.59646952 30.20365109 22.3066941 32.625 26.0625 C33.47251389 27.40682165 34.31898079 28.75180433 35.1640625 30.09765625 C35.76992188 31.05542969 36.37578125 32.01320313 37 33 C40.81835524 27.8551336 44.25103839 22.71496625 47.1484375 16.9921875 C55.33508728 1.21086124 55.33508728 1.21086124 60.30078125 -1.04541016 C65.37856966 -1.98762662 70.0376642 -1.24358779 75 0 C75 0.66 75 1.32 75 2 C74.34 2 73.68 2 73 2 C72.63261719 3.02673828 72.63261719 3.02673828 72.2578125 4.07421875 C70.77006509 7.5348486 68.87950983 10.63737268 66.875 13.8125 C66.24476929 14.8490271 66.24476929 14.8490271 65.60180664 15.90649414 C62.91541349 20.24888954 60.03512356 24.26070779 56.81640625 28.2265625 C43.52195495 45.22609767 42.88185285 59.26345289 44 80 C39.38 80 34.76 80 30 80 C30.10183594 77.89625 30.20367188 75.7925 30.30859375 73.625 C30.91300335 54.12218191 28.22456763 41.65784741 16.06738281 25.7578125 C12.67238831 21.22901492 9.67403942 16.45259691 6.625 11.6875 C6.07231445 10.85049561 5.51962891 10.01349121 4.95019531 9.15112305 C4.18980957 7.99930542 4.18980957 7.99930542 3.4140625 6.82421875 C2.9701416 6.15479248 2.5262207 5.48536621 2.06884766 4.7956543 C1 3 1 3 0 0 Z " fill="#ECE9E3" transform="translate(813,883)"/>
<path d="M0 0 C0.33 0 0.66 0 1 0 C1 74.25 1 148.5 1 225 C0.67 225 0.34 225 0 225 C0 178.8 0 132.6 0 85 C-26.4 85 -52.8 85 -80 85 C-80 78.4 -80 71.8 -80 65 C-53.6 65 -27.2 65 0 65 C0 43.55 0 22.1 0 0 Z " fill="#5B5957" transform="translate(895,546)"/>
<path d="M0 0 C4.62 0 9.24 0 14 0 C14.11345463 7.91110425 14.2049737 15.82156451 14.25906086 23.73326683 C14.28503438 27.40793726 14.32020304 31.08201705 14.37719727 34.75634766 C14.43196167 38.30960425 14.46151236 41.86229673 14.47438622 45.41594315 C14.48797276 47.41553628 14.52693404 49.41490589 14.56648254 51.41415405 C14.56915032 60.17731968 13.34330472 67.28518845 7.24409485 73.90609741 C0.97312866 79.83742 -5.54519995 81.51540321 -13.9375 81.4375 C-14.69740234 81.45748047 -15.45730469 81.47746094 -16.24023438 81.49804688 C-23.03337295 81.49224573 -27.95533192 79.38142135 -33.27734375 75.21875 C-34.09912109 74.36796875 -34.09912109 74.36796875 -34.9375 73.5 C-35.78634766 72.64921875 -35.78634766 72.64921875 -36.65234375 71.78125 C-38.11555088 69.84727188 -38.58935343 68.3703144 -39 66 C-37.40377344 64.96679519 -35.79770894 63.94877571 -34.1875 62.9375 C-33.29417969 62.36902344 -32.40085937 61.80054688 -31.48046875 61.21484375 C-29 60 -29 60 -26 61 C-24.66666667 62.66666667 -23.33333333 64.33333333 -22 66 C-16.78540733 67.73819756 -11.18297546 67.88247944 -6.0625 65.8125 C-2.89297888 63.02716326 -1.19276492 60.37355058 -0.60127258 56.15885925 C-0.59016953 55.12183365 -0.57906647 54.08480804 -0.56762695 53.01635742 C-0.54783279 51.83551071 -0.52803864 50.654664 -0.50764465 49.43803406 C-0.50125473 48.17328751 -0.49486481 46.90854095 -0.48828125 45.60546875 C-0.47033005 44.30297684 -0.45237885 43.00048492 -0.43388367 41.65852356 C-0.38649089 38.2079061 -0.35661275 34.75735354 -0.33044434 31.30651855 C-0.30058425 27.78038724 -0.25407278 24.25447928 -0.20898438 20.72851562 C-0.12307356 13.81912289 -0.05721459 6.90968935 0 0 Z " fill="#ECE9E3" transform="translate(545,883)"/>
<path d="M0 0 C22.77 0 45.54 0 69 0 C69 6.93 69 13.86 69 21 C46.23 21 23.46 21 0 21 C0 14.07 0 7.14 0 0 Z " fill="#444342" transform="translate(815,659)"/>
<path d="M0 0 C13.53 0 27.06 0 41 0 C41 0.66 41 1.32 41 2 C40.16339844 1.99476318 39.32679688 1.98952637 38.46484375 1.98413086 C35.32633728 1.96696987 32.18785493 1.95449227 29.04931641 1.94506836 C27.03676759 1.93763579 25.02424051 1.92492171 23.01171875 1.91210938 C13.4617 1.88221338 13.4617 1.88221338 4 3 C2.71040827 4.06526014 2.71040827 4.06526014 2.87974548 6.5486927 C2.88196609 7.69343496 2.88418671 8.83817722 2.88647461 10.01760864 C2.8865451 11.32674225 2.8866156 12.63587585 2.88668823 13.98468018 C2.89182332 15.44958526 2.89704476 16.91449004 2.90234375 18.37939453 C2.90426168 19.91183423 2.90572606 21.44427455 2.9067688 22.97671509 C2.90993926 26.28722403 2.91622275 29.59770772 2.92483521 32.90820694 C2.93833927 38.15477561 2.94424921 43.40133579 2.94897461 48.6479187 C2.96103984 60.75152285 2.98297856 72.85510542 3.00520325 84.95869446 C3.02543151 96.01317268 3.04351154 107.06764307 3.05341816 118.122136 C3.05836791 123.32388258 3.06818084 128.5255893 3.08184814 133.72731996 C3.08938346 136.98829589 3.09263864 140.2492666 3.0948143 143.51025009 C3.09666449 145.00685703 3.1002205 146.50346315 3.10574722 148.00006104 C3.13662581 156.64519323 2.86806505 165.18848223 2.11766052 173.79968071 C2.00799388 176.78256955 2.35000753 179.11014312 3 182 C2.90815545 184.78479946 2.7565289 187.53541797 2.55859375 190.3125 C2.01367744 199.33777917 1.92758613 208.33521174 1.97265625 217.375 C1.9754295 218.04773956 1.97820274 218.72047913 1.98106003 219.41360474 C2.00728292 225.71169488 2.04659141 232.00966745 2.09594727 238.30761719 C2.12271748 241.79306304 2.13975249 245.27844772 2.15081596 248.76397705 C2.15997603 250.71167936 2.18034713 252.65931864 2.20094299 254.60693359 C2.20432175 255.78336426 2.2077005 256.95979492 2.21118164 258.171875 C2.21863907 259.2040918 2.2260965 260.23630859 2.23377991 261.29980469 C2 264 2 264 0 268 C0 179.56 0 91.12 0 0 Z " fill="#9C9893" transform="translate(350,360)"/>
<path d="M0 0 C0.76828125 -0.02900391 1.5365625 -0.05800781 2.328125 -0.08789062 C8.0191093 -0.15188958 8.0191093 -0.15188958 11.1171875 2.22265625 C14.17166218 6.45618981 14.17380866 11.20661943 13.625 16.3125 C12.375 19.75 12.375 19.75 10.625 22.3125 C7.11323022 23.66318068 3.40860926 23.51484439 -0.3125 23.5625 C-1.51777344 23.58828125 -2.72304688 23.6140625 -3.96484375 23.640625 C-7.76883142 23.27460557 -9.60568917 22.97249593 -12.375 20.3125 C-12.75359559 17.37156948 -12.85275614 15.03605042 -12.6875 12.125 C-12.65366211 11.00061523 -12.65366211 11.00061523 -12.61914062 9.85351562 C-12.56029157 8.0056553 -12.47060938 6.15882333 -12.375 4.3125 C-11.715 4.3125 -11.055 4.3125 -10.375 4.3125 C-10.375 3.3225 -10.375 2.3325 -10.375 1.3125 C-7.11816597 -0.31591701 -3.57541665 0.04454423 0 0 Z " fill="#0B0A0C" transform="translate(370.375,452.6875)"/>
<path d="M0 0 C0.86753906 -0.01998047 1.73507812 -0.03996094 2.62890625 -0.06054688 C8.9268154 -0.05567987 8.9268154 -0.05567987 11.54296875 2.1953125 C14.18706637 8.39005549 13.90085159 14.2458301 11.5 20.4375 C8.74399302 23.19350698 6.88283479 22.7259038 3.12109375 22.75976562 C2.29738281 22.75654297 1.47367187 22.75332031 0.625 22.75 C-0.19097656 22.76611328 -1.00695312 22.78222656 -1.84765625 22.79882812 C-5.2296577 22.80158669 -7.88601433 22.68366015 -11.04296875 21.41796875 C-13.32243474 18.31960613 -13.03921518 15.12549569 -12.9375 11.4375 C-12.94458984 10.71304687 -12.95167969 9.98859375 -12.95898438 9.2421875 C-12.89581049 3.97445698 -12.89581049 3.97445698 -11.24438477 1.73413086 C-7.95236865 -0.7128807 -3.95460236 -0.03231844 0 0 Z " fill="#0A090B" transform="translate(370.5,374.5625)"/>
<path d="M0 0 C0 0.66 0 1.32 0 2 C0.66 2 1.32 2 2 2 C2.23492361 7.75562843 1.99636642 12.56544696 0 18 C-2 20 -2 20 -3.97119141 20.22705078 C-4.75671387 20.21657715 -5.54223633 20.20610352 -6.3515625 20.1953125 C-7.20234375 20.18886719 -8.053125 20.18242188 -8.9296875 20.17578125 C-10.26386719 20.15064453 -10.26386719 20.15064453 -11.625 20.125 C-12.97078125 20.11146484 -12.97078125 20.11146484 -14.34375 20.09765625 C-16.56276586 20.0740497 -18.78125077 20.0411231 -21 20 C-21 19.34 -21 18.68 -21 18 C-21.66 18 -22.32 18 -23 18 C-24.10261088 14.69216735 -24.23740779 12.04440731 -24.3125 8.5625 C-24.36857422 6.86287109 -24.36857422 6.86287109 -24.42578125 5.12890625 C-24 2 -24 2 -22.4453125 -0.3515625 C-19.12221921 -2.59173082 -16.54443904 -2.71255399 -12.5625 -2.9375 C-11.26441406 -3.02902344 -9.96632813 -3.12054688 -8.62890625 -3.21484375 C-4.7940153 -2.987805 -2.97239507 -2.38822494 0 0 Z " fill="#09080A" transform="translate(382,494)"/>
<path d="M0 0 C1.22299805 0.05414062 1.22299805 0.05414062 2.47070312 0.109375 C8.42805525 0.48140356 8.42805525 0.48140356 10.66601562 2.21044922 C12.73443538 4.91829981 12.37152702 7.54094169 12.375 10.875 C12.40400391 12.73125 12.40400391 12.73125 12.43359375 14.625 C11.9375 17.875 11.9375 17.875 10.44921875 19.796875 C6.73204142 21.39242857 3.31120718 21.23234784 -0.6875 21.125 C-1.85152344 21.11726562 -1.85152344 21.11726562 -3.0390625 21.109375 C-8.75245536 21.03002232 -8.75245536 21.03002232 -11.0625 19.875 C-11.0625 18.885 -11.0625 17.895 -11.0625 16.875 C-11.7225 16.875 -12.3825 16.875 -13.0625 16.875 C-13.17044277 14.60520335 -13.24806176 12.33394804 -13.3125 10.0625 C-13.35890625 8.79792969 -13.4053125 7.53335938 -13.453125 6.23046875 C-13.0625 2.875 -13.0625 2.875 -11.61328125 0.91796875 C-7.71242689 -0.6770207 -4.14911701 -0.30319203 0 0 Z " fill="#19191A" transform="translate(371.0625,569.125)"/>
<path d="M0 0 C2.71418652 2.56972101 3.92311935 4.75506311 5.3125 8.25 C5.94671875 9.83167969 5.94671875 9.83167969 6.59375 11.4453125 C7.28984375 13.20488281 7.28984375 13.20488281 8 15 C8.55065354 16.35214566 9.10278338 17.70369087 9.65625 19.0546875 C10.20869172 20.41131245 10.76078037 21.76808123 11.3125 23.125 C11.57909424 23.77629883 11.84568848 24.42759766 12.12036133 25.09863281 C14 29.77085986 14 29.77085986 14 32 C5.42 32 -3.16 32 -12 32 C-11.20194736 27.21168416 -10.36363137 24.06268434 -8.49609375 19.7265625 C-8.00302734 18.57285156 -7.50996094 17.41914062 -7.00195312 16.23046875 C-6.48568359 15.04066406 -5.96941406 13.85085938 -5.4375 12.625 C-4.91736328 11.41199219 -4.39722656 10.19898438 -3.86132812 8.94921875 C-2.58008244 5.96356367 -1.29280626 2.98066312 0 0 Z " fill="#0E0E0F" transform="translate(692,901)"/>
<path d="M0 0 C3.88959989 4.7898068 5.84938032 10.34315124 8.1875 16 C8.65091797 17.093125 9.11433594 18.18625 9.59179688 19.3125 C10.02943359 20.364375 10.46707031 21.41625 10.91796875 22.5 C11.31781982 23.4590625 11.7176709 24.418125 12.12963867 25.40625 C13 28 13 28 13 32 C4.42 32 -4.16 32 -13 32 C-9.61998362 21.85995086 -9.61998362 21.85995086 -7.7734375 17.34375 C-7.3815625 16.3846875 -6.9896875 15.425625 -6.5859375 14.4375 C-5.98652344 12.9834375 -5.98652344 12.9834375 -5.375 11.5 C-4.96765625 10.4996875 -4.5603125 9.499375 -4.140625 8.46875 C-1.12888825 1.12888825 -1.12888825 1.12888825 0 0 Z " fill="#0E0E0F" transform="translate(385,901)"/>
<path d="M0 0 C2.56428515 -0.13559675 5.12135216 -0.23433188 7.6875 -0.3125 C8.40873047 -0.35439453 9.12996094 -0.39628906 9.87304688 -0.43945312 C13.89023988 -0.53116986 15.58720812 -0.28652613 18.98828125 2.07421875 C21.47696872 5.69368848 21.61106603 7.76565835 21.5 12.125 C21.4896875 13.34445312 21.479375 14.56390625 21.46875 15.8203125 C20.96092988 19.26502568 20.68800563 19.97170593 18 22 C15.9152832 22.34057617 15.9152832 22.34057617 13.55078125 22.29296875 C12.70322266 22.28330078 11.85566406 22.27363281 10.98242188 22.26367188 C9.66081055 22.2259668 9.66081055 22.2259668 8.3125 22.1875 C7.41982422 22.17396484 6.52714844 22.16042969 5.60742188 22.14648438 C3.40433834 22.11114079 1.20247418 22.06180493 -1 22 C-0.505 20.515 -0.505 20.515 0 19 C0.0708055 16.51047876 0.09351061 14.05050545 0.0625 11.5625 C0.05347656 10.24378906 0.04445313 8.92507813 0.03515625 7.56640625 C0.02355469 6.38949219 0.01195312 5.21257813 0 4 C0 2.68 0 1.36 0 0 Z " fill="#1E1D1D" transform="translate(362,530)"/>
<path d="M0 0 C12.21 0 24.42 0 37 0 C32.77347942 2.11326029 30.95042626 2.22593364 26.3359375 2.16015625 C25.04945313 2.14919922 23.76296875 2.13824219 22.4375 2.12695312 C21.08332251 2.10616244 19.72915561 2.08467009 18.375 2.0625 C15.71613644 2.02615082 13.05745683 1.99801838 10.3984375 1.97265625 C8.62992432 1.94570679 8.62992432 1.94570679 6.82568359 1.91821289 C4.04888246 1.80008012 4.04888246 1.80008012 2 3 C1.68658574 5.55757859 1.48771761 7.99643821 1.375 10.5625 C1.25125 13.016875 1.1275 15.47125 1 18 C8.59 18 16.18 18 24 18 C24 18.66 24 19.32 24 20 C75.15 20 126.3 20 179 20 C179 13.4 179 6.8 179 0 C179.33 0 179.66 0 180 0 C180 6.93 180 13.86 180 21 C156.67857097 21.02311642 133.35714469 21.0409779 110.03570652 21.05181217 C99.2079638 21.05697568 88.38022831 21.06401942 77.55249023 21.07543945 C68.11865593 21.08538462 58.68482687 21.09185303 49.25098747 21.09408849 C44.25258514 21.09539589 39.25419779 21.09848353 34.25580025 21.10573006 C29.5568499 21.11248764 24.85792081 21.1146175 20.15896606 21.11310768 C18.42911094 21.11338413 16.69925516 21.1153908 14.96940422 21.11920547 C12.61817177 21.12413864 10.26702085 21.1229997 7.91578674 21.12025452 C6.59670098 21.12117631 5.27761522 21.1220981 3.91855717 21.12304783 C1 21 1 21 0 20 C-0.08669432 18.5112814 -0.10703494 17.018555 -0.09765625 15.52734375 C-0.09515869 14.71773193 -0.09266113 13.90812012 -0.09008789 13.07397461 C-0.08098389 12.03893799 -0.07187988 11.00390137 -0.0625 9.9375 C-0.0315625 5.0184375 -0.0315625 5.0184375 0 0 Z " fill="#554C41" transform="translate(907,659)"/>
<path d="M0 0 C1.29824707 0.00141495 2.59649414 0.0028299 3.93408203 0.00428772 C7.36006652 0.008078 10.78600759 0.01787786 14.2119751 0.0289917 C17.71813368 0.03928146 21.22429937 0.04380144 24.73046875 0.04882812 C31.5911653 0.05950379 38.45182609 0.07707169 45.3125 0.09765625 C45.3125 6.69765625 45.3125 13.29765625 45.3125 20.09765625 C14.9525 20.09765625 -15.4075 20.09765625 -46.6875 20.09765625 C-46.6875 19.76765625 -46.6875 19.43765625 -46.6875 19.09765625 C-27.3211173 18.19668653 -8.01153636 17.96660928 11.37084961 18.0289917 C14.99266949 18.03947799 18.61449724 18.04384173 22.23632812 18.04882812 C29.26173858 18.05934899 36.28711137 18.07683601 43.3125 18.09765625 C43.6425 12.81765625 43.9725 7.53765625 44.3125 2.09765625 C22.5325 2.09765625 0.7525 2.09765625 -21.6875 2.09765625 C-21.6875 1.76765625 -21.6875 1.43765625 -21.6875 1.09765625 C-14.44680996 -0.0396043 -7.31870431 -0.03023697 0 0 Z " fill="#D0BA9F" transform="translate(1040.6875,658.90234375)"/>
<path d="M0 0 C0.02519558 4.14021441 0.04308741 8.28038523 0.05493164 12.4206543 C0.05988235 13.82170389 0.06664464 15.22274856 0.07543945 16.6237793 C0.12907316 25.40393273 -0.11486022 34.05867146 -0.88110352 42.80834961 C-1.12371047 45.8879206 -1.12371047 45.8879206 -0.49951172 48.40454102 C0.20652702 52.0731128 -0.17777188 55.61364057 -0.44140625 59.3125 C-0.98632256 68.33777917 -1.07241387 77.33521174 -1.02734375 86.375 C-1.0245705 87.04773956 -1.02179726 87.72047913 -1.01893997 88.41360474 C-0.99271708 94.71169488 -0.95340859 101.00966745 -0.90405273 107.30761719 C-0.87728252 110.79306304 -0.86024751 114.27844772 -0.84918404 117.76397705 C-0.84002397 119.71167936 -0.81965287 121.65931864 -0.79905701 123.60693359 C-0.79567825 124.78336426 -0.7922995 125.95979492 -0.78881836 127.171875 C-0.78136093 128.2040918 -0.7739035 129.23630859 -0.76622009 130.29980469 C-1 133 -1 133 -3 137 C-3 92.12 -3 47.24 -3 1 C-1 0 -1 0 0 0 Z " fill="#52504E" transform="translate(353,491)"/>
<path d="M0 0 C5.28 0 10.56 0 16 0 C16 5.28 16 10.56 16 16 C10.72 16 5.44 16 0 16 C0 10.72 0 5.44 0 0 Z " fill="#E5E2DE" transform="translate(889,525)"/>
<path d="M0 0 C0.99 0.33 1.98 0.66 3 1 C3.50099643 2.66998809 3.99087798 4.34479169 4.40234375 6.0390625 C5.02957918 8.09705065 5.87787172 9.66981291 7 11.5 C9.0390191 14.85572885 9.948439 18.21438039 11 22 C11.97691857 23.68029994 12.97388051 25.34928604 14 27 C14.35124163 28.32872804 14.68312991 29.66265852 15 31 C16.33533522 34.90143121 17.87594002 38.71052672 19.5 42.5 C24 53 24 53 24 57 C24.66 57.33 25.32 57.66 26 58 C25.67 58.66 25.34 59.32 25 60 C25.66 60.33 26.32 60.66 27 61 C27.9296875 62.8984375 27.9296875 62.8984375 28.875 65.375 C29.21789062 66.27089844 29.56078125 67.16679688 29.9140625 68.08984375 C30.27242187 69.05019531 30.63078125 70.01054688 31 71 C31.37898437 71.99128906 31.75796875 72.98257813 32.1484375 74.00390625 C35 81.59796099 35 81.59796099 35 85 C35.99 85.495 35.99 85.495 37 86 C45.94098361 104.17704918 45.94098361 104.17704918 44 110 C43.69707031 109.26136719 43.39414062 108.52273438 43.08203125 107.76171875 C40.99684775 102.7123667 38.88153524 97.69677322 36.5625 92.75 C34.59925339 88.47757448 32.89411119 84.14137481 31.2734375 79.73046875 C28.28902197 71.69430972 25.14570868 63.72752383 21.95043945 55.77319336 C21.06458259 53.567685 20.18149404 51.36108396 19.29882812 49.15429688 C14.37102139 36.84981812 9.38165194 24.56974977 4.1875 12.375 C2.47797408 8.29238218 1.07312289 4.29249154 0 0 Z " fill="#ACA69F" transform="translate(740,697)"/>
<path d="M0 0 C2.30680346 2.09587042 3.57495352 3.87597851 4.72746277 6.76405334 C5.03449631 7.52256088 5.34152985 8.28106842 5.65786743 9.06256104 C5.98370819 9.89019958 6.30954895 10.71783813 6.64526367 11.57055664 C6.99683029 12.44560349 7.34839691 13.32065033 7.71061707 14.22221375 C8.87064687 17.11522727 10.01946334 20.01255038 11.16796875 22.91015625 C11.97023183 24.91913049 12.77308089 26.92787082 13.57649231 28.93638611 C15.25817313 33.14523606 16.93466251 37.35610314 18.60717773 41.56860352 C20.75507237 46.97801408 22.9127812 52.38344024 25.0739851 57.7875452 C26.73161949 61.93411282 28.38558098 66.08213693 30.03826332 70.23068047 C30.83292429 72.22497299 31.62838388 74.21894747 32.42464256 76.21260262 C33.53425555 78.99329698 34.63927887 81.77576888 35.74291992 84.55883789 C36.07483337 85.38850067 36.40674683 86.21816345 36.74871826 87.07296753 C39 92.77093712 39 92.77093712 39 95 C37.0625 94.3125 37.0625 94.3125 35 93 C34.59955696 91.34817245 34.28520405 89.67557379 34 88 C33.38134055 86.57125733 32.73216408 85.15555867 32.0625 83.75 C29.99092272 79.26786006 28.87064187 74.84580936 28 70 C27.34 70 26.68 70 26 70 C25.84144531 69.40574219 25.68289063 68.81148438 25.51953125 68.19921875 C24.21831469 63.57666488 22.73305201 59.22344766 20.6875 54.875 C18.63591753 50.50928135 16.85166557 46.08742149 15.1875 41.5625 C12.24799687 33.57789908 9.10689727 25.68167424 5.9296875 17.7890625 C5.61741211 17.01079102 5.30513672 16.23251953 4.98339844 15.43066406 C4.28733053 13.71019432 3.58124578 11.99376144 2.86816406 10.28027344 C2.50174805 9.39114258 2.13533203 8.50201172 1.7578125 7.5859375 C1.42152832 6.77946777 1.08524414 5.97299805 0.73876953 5.14208984 C0 3 0 3 0 0 Z " fill="#DCDBD7" transform="translate(636,297)"/>
<path d="M0 0 C0.76828125 -0.02900391 1.5365625 -0.05800781 2.328125 -0.08789062 C8.0191093 -0.15188958 8.0191093 -0.15188958 11.1171875 2.22265625 C14.17162986 6.45614501 14.07244081 11.23456711 13.625 16.3125 C12.625 18.8125 12.625 18.8125 11.625 20.3125 C11.295 20.3125 10.965 20.3125 10.625 20.3125 C10.295 14.7025 9.965 9.0925 9.625 3.3125 C3.025 3.3125 -3.575 3.3125 -10.375 3.3125 C-10.375 2.6525 -10.375 1.9925 -10.375 1.3125 C-7.11816597 -0.31591701 -3.57541665 0.04454423 0 0 Z M-12.375 4.3125 C-11.715 4.3125 -11.055 4.3125 -10.375 4.3125 C-10.045 9.2625 -9.715 14.2125 -9.375 19.3125 C-2.775 19.6425 3.825 19.9725 10.625 20.3125 C10.625 20.9725 10.625 21.6325 10.625 22.3125 C6.97756851 23.44038405 3.49088933 23.51379064 -0.3125 23.5625 C-1.51777344 23.58828125 -2.72304688 23.6140625 -3.96484375 23.640625 C-7.76883142 23.27460557 -9.60568917 22.97249593 -12.375 20.3125 C-12.75359559 17.37156948 -12.85275614 15.03605042 -12.6875 12.125 C-12.65366211 11.00061523 -12.65366211 11.00061523 -12.61914062 9.85351562 C-12.56029157 8.0056553 -12.47060938 6.15882333 -12.375 4.3125 Z " fill="#918E89" transform="translate(370.375,452.6875)"/>
<path d="M0 0 C0.86753906 -0.01998047 1.73507812 -0.03996094 2.62890625 -0.06054688 C8.9268154 -0.05567987 8.9268154 -0.05567987 11.54296875 2.1953125 C14.18706637 8.39005549 13.90085159 14.2458301 11.5 20.4375 C9.5 22.4375 9.5 22.4375 7.62060547 22.66455078 C6.87697754 22.65407715 6.13334961 22.64360352 5.3671875 22.6328125 C4.56152344 22.62636719 3.75585938 22.61992187 2.92578125 22.61328125 C2.08402344 22.59652344 1.24226563 22.57976562 0.375 22.5625 C-0.89923828 22.54896484 -0.89923828 22.54896484 -2.19921875 22.53515625 C-4.29959884 22.51155647 -6.39983444 22.47568483 -8.5 22.4375 C-8.5 21.7775 -8.5 21.1175 -8.5 20.4375 C-2.56 20.1075 3.38 19.7775 9.5 19.4375 C9.5 14.1575 9.5 8.8775 9.5 3.4375 C3.23 3.4375 -3.04 3.4375 -9.5 3.4375 C-9.5 9.3775 -9.5 15.3175 -9.5 21.4375 C-10.49 20.7775 -11.48 20.1175 -12.5 19.4375 C-12.80400756 16.6984515 -12.91829599 14.23486367 -12.875 11.5 C-12.88660156 10.77103516 -12.89820313 10.04207031 -12.91015625 9.29101562 C-12.88081438 3.95568646 -12.88081438 3.95568646 -11.24658203 1.73193359 C-7.95082017 -0.71063411 -3.95558994 -0.03232652 0 0 Z " fill="#8D8A86" transform="translate(370.5,374.5625)"/>
<path d="M0 0 C0.99 0.33 1.98 0.66 3 1 C3.04632731 8.64080129 3.08187121 16.28158803 3.10362434 23.92249775 C3.11406444 27.47043631 3.12822763 31.01827883 3.15087891 34.56616211 C3.17675331 38.64437791 3.1864709 42.72249271 3.1953125 46.80078125 C3.21079636 48.71338493 3.21079636 48.71338493 3.22659302 50.66462708 C3.22674408 51.84562485 3.22689514 53.02662262 3.22705078 54.2434082 C3.231492 55.28487503 3.23593323 56.32634186 3.24050903 57.39936829 C3 60 3 60 1 63 C-0.06782486 59.79652541 -0.12058306 57.51812177 -0.11352539 54.15161133 C-0.11344986 52.9505928 -0.11337433 51.74957428 -0.11329651 50.51216125 C-0.10813522 49.21521835 -0.10297394 47.91827545 -0.09765625 46.58203125 C-0.09579077 45.24110466 -0.09436748 43.90017739 -0.09336853 42.55924988 C-0.08955356 39.03290927 -0.07973199 35.50660996 -0.06866455 31.98028564 C-0.0584285 28.38074299 -0.05386621 24.78119365 -0.04882812 21.18164062 C-0.0381088 14.12107687 -0.02104462 7.06054113 0 0 Z " fill="#373737" transform="translate(559,883)"/>
<path d="M0 0 C2.75059381 -0.08107646 5.49879021 -0.14052813 8.25 -0.1875 C9.02730469 -0.21263672 9.80460937 -0.23777344 10.60546875 -0.26367188 C16.38924678 -0.33782288 16.38924678 -0.33782288 19.5 1.3828125 C21.58793465 3.63386705 21.7376954 4.91792089 22 8 C22.07476562 8.7940625 22.14953125 9.588125 22.2265625 10.40625 C22.27554687 11.2828125 22.32453125 12.159375 22.375 13.0625 C22.42398437 13.89910156 22.47296875 14.73570312 22.5234375 15.59765625 C22 18 22 18 20.02734375 20.29296875 C15.94719545 22.59364592 12.77813518 22.45009474 8.1875 22.25 C7.00510742 22.22292969 7.00510742 22.22292969 5.79882812 22.1953125 C3.86535739 22.14844048 1.93251715 22.0767041 0 22 C-0.33 21.34 -0.66 20.68 -1 20 C5.27 19.67 11.54 19.34 18 19 C18 13.72 18 8.44 18 3 C12.06 2.67 6.12 2.34 0 2 C0 1.34 0 0.68 0 0 Z " fill="#918E89" transform="translate(362,414)"/>
<path d="M0 0 C13.53 0 27.06 0 41 0 C41 0.66 41 1.32 41 2 C40.16339844 1.99476318 39.32679688 1.98952637 38.46484375 1.98413086 C35.32633728 1.96696987 32.18785493 1.95449227 29.04931641 1.94506836 C27.03676759 1.93763579 25.02424051 1.92492171 23.01171875 1.91210938 C13.4617 1.88221338 13.4617 1.88221338 4 3 C2.3914971 4.6085029 2.66456199 6.46787647 2.46484375 8.69140625 C2.37783203 9.63564453 2.29082031 10.57988281 2.20117188 11.55273438 C2.11416016 12.54595703 2.02714844 13.53917969 1.9375 14.5625 C1.84662109 15.55958984 1.75574219 16.55667969 1.66210938 17.58398438 C1.43741186 20.05565702 1.21689649 22.52763256 1 25 C0.67 25 0.34 25 0 25 C0 16.75 0 8.5 0 0 Z " fill="#86837F" transform="translate(350,360)"/>
<path d="M0 0 C12.21 0 24.42 0 37 0 C32.77347942 2.11326029 30.95042626 2.22593364 26.3359375 2.16015625 C25.04945313 2.14919922 23.76296875 2.13824219 22.4375 2.12695312 C21.08332251 2.10616244 19.72915561 2.08467009 18.375 2.0625 C15.71613644 2.02615082 13.05745683 1.99801838 10.3984375 1.97265625 C8.62992432 1.94570679 8.62992432 1.94570679 6.82568359 1.91821289 C4.04888246 1.80008012 4.04888246 1.80008012 2 3 C1.68658574 5.55757859 1.48771761 7.99643821 1.375 10.5625 C1.25125 13.016875 1.1275 15.47125 1 18 C8.59 18 16.18 18 24 18 C24 18.66 24 19.32 24 20 C16.08 20 8.16 20 0 20 C0 13.4 0 6.8 0 0 Z " fill="#685848" transform="translate(907,659)"/>
<path d="M0 0 C0.02519558 4.14021441 0.04308741 8.28038523 0.05493164 12.4206543 C0.05988235 13.82170389 0.06664464 15.22274856 0.07543945 16.6237793 C0.13555718 26.4654056 -0.21393783 36.18707279 -1 46 C-1.33 46 -1.66 46 -2 46 C-3.03485633 40.90807713 -3.13009967 36.05052659 -3.09765625 30.8828125 C-3.0962413 30.02565643 -3.09482635 29.16850037 -3.09336853 28.28536987 C-3.08780022 25.5652101 -3.07525364 22.84513462 -3.0625 20.125 C-3.0574809 18.27343869 -3.05291871 16.42187609 -3.04882812 14.5703125 C-3.03784117 10.04684285 -3.02059852 5.52343568 -3 1 C-1 0 -1 0 0 0 Z " fill="#76736F" transform="translate(353,491)"/>
<path d="M0 0 C0.99 0.33 1.98 0.66 3 1 C2.67 1.66 2.34 2.32 2 3 C2.66 3.33 3.32 3.66 4 4 C4.9296875 5.8984375 4.9296875 5.8984375 5.875 8.375 C6.21789062 9.27089844 6.56078125 10.16679688 6.9140625 11.08984375 C7.27242187 12.05019531 7.63078125 13.01054688 8 14 C8.37898437 14.99128906 8.75796875 15.98257813 9.1484375 17.00390625 C12 24.59796099 12 24.59796099 12 28 C12.66 28.33 13.32 28.66 14 29 C22.94098361 47.17704918 22.94098361 47.17704918 21 53 C20.69707031 52.26136719 20.39414062 51.52273438 20.08203125 50.76171875 C17.99684775 45.7123667 15.88153524 40.69677322 13.5625 35.75 C8.25139582 24.17878556 4.23593953 11.99558098 0 0 Z " fill="#969089" transform="translate(763,754)"/>
<path d="M0 0 C0.33 0 0.66 0 1 0 C1 10.89 1 21.78 1 33 C-3.62 33 -8.24 33 -13 33 C-12.67 22.44 -12.34 11.88 -12 1 C-11.67 1 -11.34 1 -11 1 C-11 10.9 -11 20.8 -11 31 C-7.37 31 -3.74 31 0 31 C0 20.77 0 10.54 0 0 Z " fill="#F4F1EC" transform="translate(856,930)"/>
<path d="M0 0 C0.33 0 0.66 0 1 0 C1.02505615 1.03930664 1.0501123 2.07861328 1.07592773 3.14941406 C1.17020926 7.01102703 1.27037908 10.87246883 1.37231445 14.73388672 C1.41558489 16.40409334 1.45726549 18.07434194 1.49731445 19.74462891 C1.55520851 22.14758955 1.6188474 24.55034041 1.68359375 26.953125 C1.70030624 27.69806213 1.71701874 28.44299927 1.73423767 29.21051025 C1.83160146 32.62967293 2.13782825 35.70094612 3 39 C3.01516065 40.66187943 2.96997372 42.32492334 2.87890625 43.984375 C2.83056641 44.91894531 2.78222656 45.85351562 2.73242188 46.81640625 C2.67634766 47.78449219 2.62027344 48.75257813 2.5625 49.75 C2.51029297 50.73355469 2.45808594 51.71710938 2.40429688 52.73046875 C2.27488563 55.15398849 2.13993095 57.57706864 2 60 C0 58 0 58 -0.24050903 55.55758667 C-0.23606781 54.53166412 -0.23162659 53.50574158 -0.22705078 52.44873047 C-0.22689972 51.28767792 -0.22674866 50.12662537 -0.22659302 48.9303894 C-0.21627045 47.67203278 -0.20594788 46.41367615 -0.1953125 45.1171875 C-0.1924826 43.83264679 -0.18965271 42.54810608 -0.18673706 41.22463989 C-0.17909809 37.80837233 -0.15944752 34.39227463 -0.1373291 30.97607422 C-0.11687624 27.49058327 -0.10773655 24.0050649 -0.09765625 20.51953125 C-0.07620175 13.67961769 -0.04206271 6.839817 0 0 Z " fill="#8C8884" transform="translate(350,434)"/>
<path d="M0 0 C0.66 0.33 1.32 0.66 2 1 C2 1.66 2 2.32 2 3 C2.66 3 3.32 3 4 3 C4.23492361 8.75562843 3.99636642 13.56544696 2 19 C0 21 0 21 -1.97119141 21.22705078 C-2.75671387 21.21657715 -3.54223633 21.20610352 -4.3515625 21.1953125 C-5.20234375 21.18886719 -6.053125 21.18242188 -6.9296875 21.17578125 C-8.26386719 21.15064453 -8.26386719 21.15064453 -9.625 21.125 C-10.97078125 21.11146484 -10.97078125 21.11146484 -12.34375 21.09765625 C-14.56276586 21.0740497 -16.78125077 21.0411231 -19 21 C-19 20.34 -19 19.68 -19 19 C-12.73 18.67 -6.46 18.34 0 18 C0 12.06 0 6.12 0 0 Z " fill="#6E6B67" transform="translate(380,493)"/>
<path d="M0 0 C12.21 0 24.42 0 37 0 C36.67 0.99 36.34 1.98 36 3 C18.675 3.495 18.675 3.495 1 4 C0.67 4.66 0.34 5.32 0 6 C-0.66 6 -1.32 6 -2 6 C-1.34 4.02 -0.68 2.04 0 0 Z " fill="#2B2B2A" transform="translate(674,945)"/>
<path d="M0 0 C0 0.66 0 1.32 0 2 C-5.94 2.33 -11.88 2.66 -18 3 C-18 8.61 -18 14.22 -18 20 C-18.66 20 -19.32 20 -20 20 C-21.10261088 16.69216735 -21.23740779 14.04440731 -21.3125 10.5625 C-21.36857422 8.86287109 -21.36857422 8.86287109 -21.42578125 7.12890625 C-21 4 -21 4 -19.45703125 1.640625 C-16.1833868 -0.54527431 -13.19573 -0.70636861 -9.375 -0.8125 C-8.3540625 -0.86954102 -8.3540625 -0.86954102 -7.3125 -0.92773438 C-2.31926707 -1.15963353 -2.31926707 -1.15963353 0 0 Z " fill="#7F7C77" transform="translate(379,492)"/>
<path d="M0 0 C1.18613892 0.00785522 1.18613892 0.00785522 2.39624023 0.01586914 C3.67724609 0.02070313 3.67724609 0.02070313 4.98413086 0.02563477 C5.88196289 0.03401367 6.77979492 0.04239258 7.70483398 0.05102539 C8.6065332 0.05553711 9.50823242 0.06004883 10.43725586 0.06469727 C12.67234712 0.07652315 14.90730835 0.09300319 17.14233398 0.11352539 C16.81233398 0.77352539 16.48233398 1.43352539 16.14233398 2.11352539 C10.53233398 2.11352539 4.92233398 2.11352539 -0.85766602 2.11352539 C-0.85766602 7.06352539 -0.85766602 12.01352539 -0.85766602 17.11352539 C-1.51766602 17.11352539 -2.17766602 17.11352539 -2.85766602 17.11352539 C-2.8845128 14.46762525 -2.90442958 11.82199443 -2.92016602 9.17602539 C-2.92854492 8.4212793 -2.93692383 7.6665332 -2.94555664 6.88891602 C-2.95419042 4.96358226 -2.90990934 3.03816958 -2.85766602 1.11352539 C-1.85766602 0.11352539 -1.85766602 0.11352539 0 0 Z " fill="#101011" transform="translate(362.857666015625,493.886474609375)"/>
<path d="M0 0 C0.66 0 1.32 0 2 0 C2 6.27 2 12.54 2 19 C-4.6 19 -11.2 19 -18 19 C-18 18.67 -18 18.34 -18 18 C-12.06 17.67 -6.12 17.34 0 17 C0 11.39 0 5.78 0 0 Z " fill="#585754" transform="translate(882,660)"/>
<path d="M0 0 C0.99 0 1.98 0 3 0 C3 6.27 3 12.54 3 19 C2.01 19 1.02 19 0 19 C0 12.73 0 6.46 0 0 Z " fill="#706F6D" transform="translate(853,570)"/>
<path d="M0 0 C0.99 0 1.98 0 3 0 C3 6.27 3 12.54 3 19 C2.01 19 1.02 19 0 19 C0 12.73 0 6.46 0 0 Z " fill="#969491" transform="translate(1068,570)"/>
<path d="M0 0 C0.99 0 1.98 0 3 0 C3 6.27 3 12.54 3 19 C2.01 19 1.02 19 0 19 C0 12.73 0 6.46 0 0 Z " fill="#949492" transform="translate(1037,570)"/>
<path d="M0 0 C0.99 0 1.98 0 3 0 C3 6.27 3 12.54 3 19 C2.01 19 1.02 19 0 19 C0 12.73 0 6.46 0 0 Z " fill="#747372" transform="translate(884,570)"/>
<path d="M0 0 C0.99 0 1.98 0 3 0 C3 6.27 3 12.54 3 19 C2.01 19 1.02 19 0 19 C0 12.73 0 6.46 0 0 Z " fill="#797774" transform="translate(912,570)"/>
<path d="M0 0 C0.99 0 1.98 0 3 0 C3 6.27 3 12.54 3 19 C2.01 19 1.02 19 0 19 C0 12.73 0 6.46 0 0 Z " fill="#7D7C79" transform="translate(943,570)"/>
<path d="M0 0 C0.99 0 1.98 0 3 0 C3 6.27 3 12.54 3 19 C2.01 19 1.02 19 0 19 C0 12.73 0 6.46 0 0 Z " fill="#888685" transform="translate(1006,570)"/>
<path d="M0 0 C0.99 0 1.98 0 3 0 C3 6.27 3 12.54 3 19 C2.01 19 1.02 19 0 19 C0 12.73 0 6.46 0 0 Z " fill="#666563" transform="translate(822,570)"/>
<path d="M0 0 C0.66 0 1.32 0 2 0 C2.33 4.95 2.66 9.9 3 15 C9.27 15.33 15.54 15.66 22 16 C22 16.33 22 16.66 22 17 C18.70926338 17.22531972 15.41750581 17.42735982 12.125 17.625 C10.71927734 17.72167969 10.71927734 17.72167969 9.28515625 17.8203125 C7.94130859 17.89765625 7.94130859 17.89765625 6.5703125 17.9765625 C5.74289551 18.02893066 4.91547852 18.08129883 4.06298828 18.13525391 C2 18 2 18 0 16 C-0.14507695 13.25514407 -0.18652423 10.61519457 -0.125 7.875 C-0.11146484 6.74384766 -0.11146484 6.74384766 -0.09765625 5.58984375 C-0.0740687 3.72642746 -0.03819719 1.86317407 0 0 Z " fill="#7E7C77" transform="translate(358,457)"/>
<path d="M0 0 C3.70261442 3.33607059 4.93829067 7.24410569 6.6875 11.8125 C7.16799805 13.00456055 7.16799805 13.00456055 7.65820312 14.22070312 C9.37177806 18.63799971 10.41134794 22.18024394 10 27 C8 25 8 25 7.875 22.375 C7.91625 21.59125 7.9575 20.8075 8 20 C7.34 20 6.68 20 6 20 C6 18.35 6 16.7 6 15 C5.34 15 4.68 15 4 15 C3.34 11.7 2.68 8.4 2 5 C1.34 5 0.68 5 0 5 C-0.33 4.01 -0.66 3.02 -1 2 C-0.67 1.34 -0.34 0.68 0 0 Z " fill="#E0DDD9" transform="translate(676,397)"/>
<path d="M0 0 C0.66 0 1.32 0 2 0 C1.4253379 4.78642607 0.01754357 8.53788787 -2.0625 12.875 C-2.61035156 14.02742188 -3.15820312 15.17984375 -3.72265625 16.3671875 C-4.14417969 17.23601562 -4.56570313 18.10484375 -5 19 C-5.66 19 -6.32 19 -7 19 C-6.4253379 14.21357393 -5.01754357 10.46211213 -2.9375 6.125 C-2.38964844 4.97257812 -1.84179688 3.82015625 -1.27734375 2.6328125 C-0.85582031 1.76398438 -0.43429687 0.89515625 0 0 Z " fill="#DEDCD8" transform="translate(568,417)"/>
<path d="M0 0 C3 1 3 1 4.28125 3.40625 C5.53869647 6.59822951 6.7932359 9.78845039 8 13 C8.33773437 13.88816406 8.67546875 14.77632812 9.0234375 15.69140625 C11.13917526 21.58247423 11.13917526 21.58247423 10 25 C9.69707031 24.26136719 9.39414062 23.52273438 9.08203125 22.76171875 C6.49563636 16.49866404 3.80548547 10.31010761 0.91796875 4.1796875 C0 2 0 2 0 0 Z " fill="#847E78" transform="translate(774,782)"/>
<path d="M0 0 C18.315 0.495 18.315 0.495 37 1 C37 1.33 37 1.66 37 2 C35.99098633 2.02505615 34.98197266 2.0501123 33.94238281 2.07592773 C30.19258304 2.17022409 26.44295892 2.27039021 22.69335938 2.37231445 C21.07165643 2.41557931 19.44991042 2.45726028 17.828125 2.49731445 C15.49465973 2.55522214 13.16140957 2.61885698 10.828125 2.68359375 C10.10506165 2.70030624 9.38199829 2.71701874 8.63702393 2.73423767 C5.30109444 2.83202649 2.19445984 2.9845665 -1 4 C-0.67 2.68 -0.34 1.36 0 0 Z " fill="#171617" transform="translate(366,946)"/>
<path d="M0 0 C0.33 0 0.66 0 1 0 C1 2.31 1 4.62 1 7 C1.66 7 2.32 7 3 7 C2.67 12.61 2.34 18.22 2 24 C1.34 24 0.68 24 0 24 C0 16.08 0 8.16 0 0 Z " fill="#676562" transform="translate(350,531)"/>
<path d="M0 0 C0.33 0 0.66 0 1 0 C2.32286246 4.96073422 2.08893197 9.91111512 2 15 C1.34 15 0.68 15 0 15 C0 19.62 0 24.24 0 29 C-0.33 29 -0.66 29 -1 29 C-1.19148936 9.65957447 -1.19148936 9.65957447 0 0 Z " fill="#908D89" transform="translate(351,374)"/>
<path d="M0 0 C0.99 0.33 1.98 0.66 3 1 C4.09765625 3.328125 4.09765625 3.328125 5.0625 6.25 C6.49264952 10.51092354 6.49264952 10.51092354 8.18359375 14.671875 C9 17 9 17 8 20 C1.48063781 6.3667426 1.48063781 6.3667426 0 0 Z " fill="#A09B93" transform="translate(755,734)"/>
<path d="M0 0 C1.07980476 3.21750519 0.97733906 4.82122732 -0.43359375 7.890625 C-0.75263672 8.59960938 -1.07167969 9.30859375 -1.40039062 10.0390625 C-1.74263672 10.76867187 -2.08488281 11.49828125 -2.4375 12.25 C-2.77587891 12.99507812 -3.11425781 13.74015625 -3.46289062 14.5078125 C-4.29826304 16.34327865 -5.14777967 18.17229555 -6 20 C-6.66 20 -7.32 20 -8 20 C-6.34998276 12.90492587 -3.13106483 6.54766701 0 0 Z " fill="#E4E0DB" transform="translate(556,540)"/>
<path d="M0 0 C0.33 1.32 0.66 2.64 1 4 C-1.04490065 6.26597099 -2.3237738 7.6441803 -5 9 C-8.75547372 9.14424316 -12.30801081 8.66350695 -16 8 C-16 7.67 -16 7.34 -16 7 C-14.77023437 6.87044922 -14.77023437 6.87044922 -13.515625 6.73828125 C-6.74032584 6.02798466 -6.74032584 6.02798466 -1.25 2.375 C-0.8375 1.59125 -0.425 0.8075 0 0 Z M-9 9 C-7 10 -7 10 -7 10 Z " fill="#D2CFCC" transform="translate(543,944)"/>
<path d="M0 0 C0.33 0.66 0.66 1.32 1 2 C0.00390625 4.6015625 0.00390625 4.6015625 -1.4375 7.625 C-1.91058594 8.62789063 -2.38367188 9.63078125 -2.87109375 10.6640625 C-3.24363281 11.43492187 -3.61617187 12.20578125 -4 13 C-5.109375 11.26171875 -5.109375 11.26171875 -6 9 C-5.390625 6.89453125 -5.390625 6.89453125 -4.25 4.8125 C-3.88390625 4.11769531 -3.5178125 3.42289062 -3.140625 2.70703125 C-2 1 -2 1 0 0 Z " fill="#D4D0CA" transform="translate(553,455)"/>
<path d="M0 0 C2 3 2 3 2 5 C-6.58 5 -15.16 5 -24 5 C-24 4.67 -24 4.34 -24 4 C-16.41 4 -8.82 4 -1 4 C-0.67 2.68 -0.34 1.36 0 0 Z " fill="#292726" transform="translate(704,928)"/>
<path d="M0 0 C3.33193619 2.69728168 4.60371996 6.02060187 6 10 C5.6875 12.4375 5.6875 12.4375 5 14 C2 8.375 2 8.375 2 5 C0.68 5.33 -0.64 5.66 -2 6 C-1.34 4.02 -0.68 2.04 0 0 Z " fill="#252423" transform="translate(692,901)"/>
<path d="M0 0 C1.11346788 2.80033839 1.03510273 3.90143703 0.00390625 6.796875 C-0.47175781 7.77140625 -0.94742188 8.7459375 -1.4375 9.75 C-1.91058594 10.73484375 -2.38367188 11.7196875 -2.87109375 12.734375 C-3.24363281 13.48203125 -3.61617187 14.2296875 -4 15 C-4.33 15 -4.66 15 -5 15 C-4.7242265 8.7950962 -3.89359206 4.89839001 0 0 Z " fill="#E3E0DB" transform="translate(544,473)"/>
<path d="M0 0 C1.8125 0.5 1.8125 0.5 4 2 C5.37162003 4.56072611 6.39748699 7.15636384 7 10 C6.67 10.99 6.34 11.98 6 13 C6.66 13.33 7.32 13.66 8 14 C7.01 14 6.02 14 5 14 C4.35366725 12.22934889 3.7079517 10.45847247 3.0625 8.6875 C2.70285156 7.70136719 2.34320312 6.71523438 1.97265625 5.69921875 C1.29114035 3.8079437 0.6357189 1.90715671 0 0 Z " fill="#B2AEA8" transform="translate(723,657)"/>
<path d="M0 0 C0.66 0 1.32 0 2 0 C-0.89066059 9.59453303 -0.89066059 9.59453303 -4 13 C-4.5497272 7.36529617 -2.95047835 4.61012242 0 0 Z " fill="#E6E4E0" transform="translate(575,403)"/>
<path d="M0 0 C0.66 0.66 1.32 1.32 2 2 C1.875 5.5 1.875 5.5 1 9 C-1.0625 10.4375 -1.0625 10.4375 -3 11 C-2.44894091 7.0507432 -1.61064629 3.65079826 0 0 Z " fill="#1D1C1D" transform="translate(536,589)"/>
<path d="M0 0 C0.66 0 1.32 0 2 0 C1.39301257 4.12751449 -0.03810791 7.3321148 -2 11 C-2.66 11 -3.32 11 -4 11 C-3.49357808 6.64477147 -2.61588503 3.55760365 0 0 Z " fill="#E1DDD8" transform="translate(521,524)"/>
<path d="M0 0 C0.66 0 1.32 0 2 0 C1.45660208 4.56454251 0.20536179 7.9728176 -2 12 C-2.66 12 -3.32 12 -4 12 C-2.66666667 8 -1.33333333 4 0 0 Z " fill="#1B1B1C" transform="translate(381,909)"/>
<path d="M0 0 C0 0.66 0 1.32 0 2 C-7.92 1.67 -15.84 1.34 -24 1 C-24 0.67 -24 0.34 -24 0 C-20.3754207 -0.19632025 -16.75032733 -0.38055978 -13.125 -0.5625 C-12.09246094 -0.61857422 -11.05992187 -0.67464844 -9.99609375 -0.73242188 C-8.51689453 -0.80493164 -8.51689453 -0.80493164 -7.0078125 -0.87890625 C-6.09660645 -0.9260376 -5.18540039 -0.97316895 -4.24658203 -1.02172852 C-2 -1 -2 -1 0 0 Z " fill="#C8C5BF" transform="translate(680,602)"/>
<path d="M0 0 C1.32830615 3.98491845 0.23204404 5.40048548 -1.4375 9.1875 C-1.91058594 10.27417969 -2.38367188 11.36085938 -2.87109375 12.48046875 C-3.42990234 13.72763672 -3.42990234 13.72763672 -4 15 C-4.66 15 -5.32 15 -6 15 C-5.34 12.03 -4.68 9.06 -4 6 C-3.34 6 -2.68 6 -2 6 C-1.34 4.02 -0.68 2.04 0 0 Z " fill="#E4E1DB" transform="translate(547,561)"/>
<path d="M0 0 C1.06528748 2.73019786 1.07998186 3.79298812 0.00390625 6.578125 C-0.47175781 7.45984375 -0.94742188 8.3415625 -1.4375 9.25 C-1.91058594 10.14203125 -2.38367188 11.0340625 -2.87109375 11.953125 C-3.24363281 12.62859375 -3.61617187 13.3040625 -4 14 C-4.66 14 -5.32 14 -6 14 C-4.16508812 9.25981099 -2.08058541 4.63586749 0 0 Z " fill="#E7E4DF" transform="translate(569,510)"/>
<path d="M0 0 C4.95 0 9.9 0 15 0 C12 6 12 6 10 7 C10.33 5.35 10.66 3.7 11 2 C7.37 1.67 3.74 1.34 0 1 C0 0.67 0 0.34 0 0 Z " fill="#F4F1EC" transform="translate(872,884)"/>
<path d="M0 0 C0.66 0.66 1.32 1.32 2 2 C1.38080922 3.46080933 0.75443308 4.91857455 0.125 6.375 C-0.22304688 7.18710937 -0.57109375 7.99921875 -0.9296875 8.8359375 C-2 11 -2 11 -4 13 C-4.5497272 7.36529617 -2.95047835 4.61012242 0 0 Z " fill="#E7E5E1" transform="translate(584,383)"/>
<path d="M0 0 C1.25 1.5625 1.25 1.5625 2 4 C0.93237266 6.57001015 -0.46544943 8.6530403 -2 11 C-2.66 11 -3.32 11 -4 11 C-3.52269162 9.5410574 -3.04308958 8.08286504 -2.5625 6.625 C-2.29566406 5.81289063 -2.02882813 5.00078125 -1.75390625 4.1640625 C-1 2 -1 2 0 0 Z " fill="#BEBBB5" transform="translate(388,820)"/>
<path d="M0 0 C0.33 0 0.66 0 1 0 C1.45374191 5.67177385 0.65083143 8.5975268 -3 13 C-3.66 13 -4.32 13 -5 13 C-3.58192622 8.52761347 -1.88695626 4.28853694 0 0 Z " fill="#242323" transform="translate(517,634)"/>
<path d="M0 0 C1 3 1 3 0.00390625 5.48046875 C-0.47175781 6.37378906 -0.94742188 7.26710938 -1.4375 8.1875 C-1.91058594 9.08855469 -2.38367188 9.98960937 -2.87109375 10.91796875 C-3.24363281 11.60503906 -3.61617187 12.29210937 -4 13 C-5 11 -5 11 -4.51171875 8.90625 C-4.23972656 8.1121875 -3.96773437 7.318125 -3.6875 6.5 C-3.42324219 5.7059375 -3.15898438 4.911875 -2.88671875 4.09375 C-2 2 -2 2 0 0 Z " fill="#E3DFD8" transform="translate(540,577)"/>
<path d="M0 0 C0.6875 1.625 0.6875 1.625 1 4 C-0.4375 7.25 -0.4375 7.25 -2 10 C-2.66 10 -3.32 10 -4 10 C-3.5205537 5.78087253 -2.83374881 3.20336822 0 0 Z " fill="#E3E2DD" transform="translate(557,444)"/>
<path d="M0 0 C0.66 0 1.32 0 2 0 C2.69699552 1.45381897 3.38233866 2.91322953 4.0625 4.375 C4.63677734 5.59316406 4.63677734 5.59316406 5.22265625 6.8359375 C5.47917969 7.55007813 5.73570312 8.26421875 6 9 C5.67 9.66 5.34 10.32 5 11 C2.27042661 8.64264116 1.11106604 6.41866474 0 3 C0 2.01 0 1.02 0 0 Z " fill="#1B1A1A" transform="translate(754,736)"/>
<path d="M0 0 C0.66 0 1.32 0 2 0 C0.25 7.625 0.25 7.625 -2 11 C-2.66 11 -3.32 11 -4 11 C-3.52269162 9.5410574 -3.04308958 8.08286504 -2.5625 6.625 C-2.29566406 5.81289063 -2.02882813 5.00078125 -1.75390625 4.1640625 C-1 2 -1 2 0 0 Z " fill="#191919" transform="translate(585,478)"/>
<path d="M0 0 C0.66 0.33 1.32 0.66 2 1 C1.57742724 2.4835001 1.13643678 3.96176424 0.6875 5.4375 C0.44386719 6.26121094 0.20023437 7.08492187 -0.05078125 7.93359375 C-0.36402344 8.61550781 -0.67726563 9.29742188 -1 10 C-1.99 10.33 -2.98 10.66 -4 11 C-2.7874262 7.27566618 -1.49140021 3.62197194 0 0 Z " fill="#C4C0BA" transform="translate(482,609)"/>
<path d="M0 0 C0.33 0 0.66 0 1 0 C1.19622241 4.21878192 0.80230168 7.17010894 -1 11 C-1.99 11 -2.98 11 -4 11 C-2.7874262 7.27566618 -1.49140021 3.62197194 0 0 Z " fill="#D8D5D0" transform="translate(579,392)"/>
<path d="M0 0 C0.33 0 0.66 0 1 0 C1.375 2.1875 1.375 2.1875 1 5 C-0.83961648 6.99022836 -2.79186148 8.38989899 -5 10 C-5 6.07176899 -3.48245551 4.93381106 -1 2 C-0.67 1.34 -0.34 0.68 0 0 Z " fill="#181818" transform="translate(556,950)"/>
<path d="M0 0 C0.66 0 1.32 0 2 0 C1.55149342 1.81495662 1.09090429 3.62693134 0.625 5.4375 C0.24214844 6.95150391 0.24214844 6.95150391 -0.1484375 8.49609375 C-1 11 -1 11 -3 12 C-2.49202991 7.6822542 -1.80317221 3.96697886 0 0 Z " fill="#E5E2DE" transform="translate(604,336)"/>
<path d="M0 0 C1.25 1.5625 1.25 1.5625 2 4 C0.93237266 6.57001015 -0.46544943 8.6530403 -2 11 C-2.66 11 -3.32 11 -4 11 C-2.7874262 7.27566618 -1.49140021 3.62197194 0 0 Z " fill="#B9B5B0" transform="translate(404,784)"/>
<path d="M0 0 C0.99 0.33 1.98 0.66 3 1 C4.125 4.375 4.125 4.375 5 8 C5.33 8.99 5.66 9.98 6 11 C5.34 11 4.68 11 4 11 C3.32880451 9.5437455 2.66318193 8.08492133 2 6.625 C1.62875 5.81289063 1.2575 5.00078125 0.875 4.1640625 C0 2 0 2 0 0 Z " fill="#B5AFA9" transform="translate(740,697)"/>
<path d="M0 0 C2.04219706 1.69179328 2.91793306 2.63727666 3.51171875 5.26171875 C3.56972656 6.06222656 3.62773438 6.86273438 3.6875 7.6875 C3.75324219 8.49574219 3.81898438 9.30398438 3.88671875 10.13671875 C3.92410156 10.75160156 3.96148438 11.36648438 4 12 C3.566875 11.1028125 3.566875 11.1028125 3.125 10.1875 C1.95257974 7.80672208 1.95257974 7.80672208 0 5 C-0.125 2.3125 -0.125 2.3125 0 0 Z " fill="#E6E3DE" transform="translate(696,447)"/>
<path d="M0 0 C0.66 0 1.32 0 2 0 C3.60355101 3.50776784 4.22036864 6.14354879 4 10 C2 7 2 7 1 5 C0.01 5.495 0.01 5.495 -1 6 C-0.67 4.02 -0.34 2.04 0 0 Z " fill="#DBD9D6" transform="translate(629,280)"/>
<path d="M0 0 C1.9451 2.91765 2.45276317 4.62537285 3 8 C2.01 8 1.02 8 0 8 C-0.38063221 5.6739143 -0.71269945 3.33944736 -1 1 C-0.67 0.67 -0.34 0.34 0 0 Z " fill="#CBC7C1" transform="translate(720,505)"/>
<path d="M0 0 C0.93065133 2.60582371 1.14917407 3.64198224 0.0625 6.25 C-0.4634375 7.11625 -0.4634375 7.11625 -1 8 C-1.66 8 -2.32 8 -3 8 C-2.25 2.25 -2.25 2.25 0 0 Z " fill="#E1DED9" transform="translate(536,491)"/>
<path d="M0 0 C2.79872437 2.52788007 4.45773019 4.20411134 5 8 C3.68 7.67 2.36 7.34 1 7 C0.67 4.69 0.34 2.38 0 0 Z " fill="#D3D0CB" transform="translate(712,916)"/>
<path d="M0 0 C0.99 0.33 1.98 0.66 3 1 C4.1875 3.5625 4.1875 3.5625 5 6 C4.34 6.66 3.68 7.32 3 8 C0 2.25 0 2.25 0 0 Z " fill="#9A948E" transform="translate(744,708)"/>
<path d="M0 0 C0.33 0.99 0.66 1.98 1 3 C0.01 3.66 -0.98 4.32 -2 5 C-2.66 5.66 -3.32 6.32 -4 7 C-4.33 5.68 -4.66 4.36 -5 3 C-3.35 2.01 -1.7 1.02 0 0 Z " fill="#D7D5D2" transform="translate(511,946)"/>
<path d="M0 0 C0.33 0 0.66 0 1 0 C0.125 6.75 0.125 6.75 -1 9 C-1.66 9 -2.32 9 -3 9 C-2.01 6.03 -1.02 3.06 0 0 Z " fill="#D4D1CE" transform="translate(666,929)"/>
<path d="M0 0 C0.99 0.33 1.98 0.66 3 1 C2.34 2.65 1.68 4.3 1 6 C0.01 6 -0.98 6 -2 6 C-1.34 4.02 -0.68 2.04 0 0 Z " fill="#262626" transform="translate(545,569)"/>
<path d="M0 0 C0.66 1.32 1.32 2.64 2 4 C0.75 6.75 0.75 6.75 -1 9 C-1.66 9 -2.32 9 -3 9 C-2.01 6.03 -1.02 3.06 0 0 Z " fill="#2A2A2B" transform="translate(554,548)"/>
<path d="M0 0 C0.93065133 2.60582371 1.14917407 3.64198224 0.0625 6.25 C-0.4634375 7.11625 -0.4634375 7.11625 -1 8 C-1.66 8 -2.32 8 -3 8 C-2.45276317 4.62537285 -1.9451 2.91765 0 0 Z " fill="#E6E3DE" transform="translate(532,500)"/>
<path d="M0 0 C0.33 0.66 0.66 1.32 1 2 C0.06553465 4.03144641 -0.93224776 6.03533587 -2 8 C-2.33 8 -2.66 8 -3 8 C-3.1875 5.125 -3.1875 5.125 -3 2 C-2.01 1.34 -1.02 0.68 0 0 Z " fill="#E6E2DD" transform="translate(553,455)"/>
</svg>
